# 3ds Max Wavefront OBJ Exporter v0.99 - (c)2007 guruware
# File Created: 10.10.2023 14:02:47

mtllib box.mtl

#
# object Box001
#

v  -50.0000 0.0000 -50.0000
v  -50.0000 0.0000 50.0000
v  50.0000 0.0000 50.0000
v  50.0000 0.0000 -50.0000
v  50.0000 100.0000 50.0000
v  -50.0000 100.0000 50.0000
v  -50.0000 100.0000 -50.0000
v  50.0000 100.0000 -50.0000
# 8 vertices

vn 0.5774 0.5774 0.5774
vn 0.5774 0.5774 -0.5774
vn -0.5774 0.5774 -0.5774
vn -0.5774 0.5774 0.5774
vn -0.5774 -0.5774 -0.5774
vn 0.5774 -0.5774 -0.5774
vn 0.5774 -0.5774 0.5774
vn -0.5774 -0.5774 0.5774
# 8 vertex normals

vt 1.0000 1.0000 0.0000
vt 1.0000 0.0000 0.0000
vt 0.0000 0.0000 0.0000
vt 0.0000 1.0000 0.0000
# 4 texture coords

o Box001
g Box001
usemtl wire_006135058
s 2
f 1/1/1 2/2/2 3/3/3 4/4/4 
s 4
f 5/2/5 6/3/6 7/4/7 8/1/8 
s 8
f 3/2/3 2/3/2 6/4/6 5/1/5 
s 16
f 4/2/4 3/3/3 5/4/5 8/1/8 
s 32
f 1/2/1 4/3/4 8/4/8 7/1/7 
s 64
f 2/2/2 1/3/1 7/4/7 6/1/6 
# 6 polygons

