# 3ds Max Wavefront OBJ Exporter v0.99 - (c)2007 guruware
# File Created: 10.10.2023 13:32:04

mtllib plano.mtl

#
# object 
#

v  -81.0285 -25.0000 33.5631
v  -81.0285 -50.0000 33.5631
v  -70.6708 -50.0000 24.3870
v  -70.6708 -25.0000 24.3870
v  -59.2826 -50.0000 16.5262
v  -59.2826 -25.0000 16.5262
v  -47.0298 -50.0000 10.0955
v  -47.0298 -25.0000 10.0955
v  -34.0913 -50.0000 5.1886
v  -34.0913 -25.0000 5.1886
v  -20.6557 -50.0000 1.8770
v  -20.6557 -25.0000 1.8770
v  -6.9189 -50.0000 0.2091
v  -6.9189 -25.0000 0.2091
v  6.9189 -50.0000 0.2091
v  6.9189 -25.0000 0.2091
v  20.6557 -50.0000 1.8770
v  20.6557 -25.0000 1.8770
v  34.0913 -50.0000 5.1886
v  34.0913 -25.0000 5.1886
v  47.0298 -50.0000 10.0955
v  47.0298 -25.0000 10.0955
v  59.2825 -50.0000 16.5262
v  59.2825 -25.0000 16.5262
v  70.6708 -50.0000 24.3870
v  70.6708 -25.0000 24.3870
v  81.0285 -50.0000 33.5631
v  81.0285 -25.0000 33.5631
v  -81.0285 -0.0000 33.5631
v  -70.6708 -0.0000 24.3870
v  -59.2826 -0.0000 16.5262
v  -47.0298 -0.0000 10.0955
v  -34.0913 -0.0000 5.1886
v  -20.6557 -0.0000 1.8770
v  -6.9189 -0.0000 0.2091
v  6.9189 -0.0000 0.2091
v  20.6557 -0.0000 1.8770
v  34.0913 -0.0000 5.1886
v  47.0298 -0.0000 10.0955
v  59.2825 -0.0000 16.5262
v  70.6708 -0.0000 24.3870
v  81.0285 -0.0000 33.5631
v  -81.0285 25.0000 33.5631
v  -70.6708 25.0000 24.3870
v  -59.2826 25.0000 16.5263
v  -47.0298 25.0000 10.0955
v  -34.0913 25.0000 5.1886
v  -20.6557 25.0000 1.8770
v  -6.9189 25.0000 0.2091
v  6.9189 25.0000 0.2091
v  20.6557 25.0000 1.8770
v  34.0913 25.0000 5.1886
v  47.0298 25.0000 10.0955
v  59.2825 25.0000 16.5263
v  70.6708 25.0000 24.3870
v  81.0285 25.0000 33.5631
v  -81.0285 50.0000 33.5631
v  -70.6708 50.0000 24.3870
v  -59.2826 50.0000 16.5263
v  -47.0298 50.0000 10.0955
v  -34.0913 50.0000 5.1886
v  -20.6557 50.0000 1.8770
v  -6.9189 50.0000 0.2091
v  6.9189 50.0000 0.2091
v  20.6557 50.0000 1.8770
v  34.0913 50.0000 5.1886
v  47.0298 50.0000 10.0955
v  59.2825 50.0000 16.5263
v  70.6708 50.0000 24.3870
v  81.0285 50.0000 33.5631
# 70 vertices

vn 0.6631 -0.0000 0.7485
vn 0.6167 -0.0000 0.7872
vn 0.5173 -0.0000 0.8558
vn 0.4104 -0.0000 0.9119
vn 0.2975 -0.0000 0.9547
vn 0.1803 -0.0000 0.9836
vn 0.0604 -0.0000 0.9982
vn -0.0604 -0.0000 0.9982
vn -0.1802 -0.0000 0.9836
vn -0.2975 -0.0000 0.9547
vn -0.4104 -0.0000 0.9119
vn -0.5173 -0.0000 0.8558
vn -0.6167 -0.0000 0.7872
vn -0.6631 -0.0000 0.7485
# 14 vertex normals

vt 0.0000 0.2500 0.0000
vt 0.0000 0.0000 0.0000
vt 0.0769 0.0000 0.0000
vt 0.0769 0.2500 0.0000
vt 0.1538 0.0000 0.0000
vt 0.1538 0.2500 0.0000
vt 0.2308 0.0000 0.0000
vt 0.2308 0.2500 0.0000
vt 0.3077 0.0000 0.0000
vt 0.3077 0.2500 0.0000
vt 0.3846 0.0000 0.0000
vt 0.3846 0.2500 0.0000
vt 0.4615 0.0000 0.0000
vt 0.4615 0.2500 0.0000
vt 0.5385 0.0000 0.0000
vt 0.5385 0.2500 0.0000
vt 0.6154 0.0000 0.0000
vt 0.6154 0.2500 0.0000
vt 0.6923 0.0000 0.0000
vt 0.6923 0.2500 0.0000
vt 0.7692 0.0000 0.0000
vt 0.7692 0.2500 0.0000
vt 0.8462 0.0000 0.0000
vt 0.8462 0.2500 0.0000
vt 0.9231 0.0000 0.0000
vt 0.9231 0.2500 0.0000
vt 1.0000 0.0000 0.0000
vt 1.0000 0.2500 0.0000
vt 0.0000 0.5000 0.0000
vt 0.0769 0.5000 0.0000
vt 0.1538 0.5000 0.0000
vt 0.2308 0.5000 0.0000
vt 0.3077 0.5000 0.0000
vt 0.3846 0.5000 0.0000
vt 0.4615 0.5000 0.0000
vt 0.5385 0.5000 0.0000
vt 0.6154 0.5000 0.0000
vt 0.6923 0.5000 0.0000
vt 0.7692 0.5000 0.0000
vt 0.8462 0.5000 0.0000
vt 0.9231 0.5000 0.0000
vt 1.0000 0.5000 0.0000
vt 0.0000 0.7500 0.0000
vt 0.0769 0.7500 0.0000
vt 0.1538 0.7500 0.0000
vt 0.2308 0.7500 0.0000
vt 0.3077 0.7500 0.0000
vt 0.3846 0.7500 0.0000
vt 0.4615 0.7500 0.0000
vt 0.5385 0.7500 0.0000
vt 0.6154 0.7500 0.0000
vt 0.6923 0.7500 0.0000
vt 0.7692 0.7500 0.0000
vt 0.8462 0.7500 0.0000
vt 0.9231 0.7500 0.0000
vt 1.0000 0.7500 0.0000
vt 0.0000 1.0000 0.0000
vt 0.0769 1.0000 0.0000
vt 0.1538 1.0000 0.0000
vt 0.2308 1.0000 0.0000
vt 0.3077 1.0000 0.0000
vt 0.3846 1.0000 0.0000
vt 0.4615 1.0000 0.0000
vt 0.5385 1.0000 0.0000
vt 0.6154 1.0000 0.0000
vt 0.6923 1.0000 0.0000
vt 0.7692 1.0000 0.0000
vt 0.8462 1.0000 0.0000
vt 0.9231 1.0000 0.0000
vt 1.0000 1.0000 0.0000
# 70 texture coords

o 
g 
usemtl wire_225198087
s 1
f 1/1/1 2/2/1 3/3/2 4/4/2 
f 4/4/2 3/3/2 5/5/3 6/6/3 
f 6/6/3 5/5/3 7/7/4 8/8/4 
f 8/8/4 7/7/4 9/9/5 10/10/5 
f 10/10/5 9/9/5 11/11/6 12/12/6 
f 12/12/6 11/11/6 13/13/7 14/14/7 
f 14/14/7 13/13/7 15/15/8 16/16/8 
f 16/16/8 15/15/8 17/17/9 18/18/9 
f 18/18/9 17/17/9 19/19/10 20/20/10 
f 20/20/10 19/19/10 21/21/11 22/22/11 
f 22/22/11 21/21/11 23/23/12 24/24/12 
f 24/24/12 23/23/12 25/25/13 26/26/13 
f 26/26/13 25/25/13 27/27/14 28/28/14 
f 29/29/1 1/1/1 4/4/2 30/30/2 
f 30/30/2 4/4/2 6/6/3 31/31/3 
f 31/31/3 6/6/3 8/8/4 32/32/4 
f 32/32/4 8/8/4 10/10/5 33/33/5 
f 33/33/5 10/10/5 12/12/6 34/34/6 
f 34/34/6 12/12/6 14/14/7 35/35/7 
f 35/35/7 14/14/7 16/16/8 36/36/8 
f 36/36/8 16/16/8 18/18/9 37/37/9 
f 37/37/9 18/18/9 20/20/10 38/38/10 
f 38/38/10 20/20/10 22/22/11 39/39/11 
f 39/39/11 22/22/11 24/24/12 40/40/12 
f 40/40/12 24/24/12 26/26/13 41/41/13 
f 41/41/13 26/26/13 28/28/14 42/42/14 
f 43/43/1 29/29/1 30/30/2 44/44/2 
f 44/44/2 30/30/2 31/31/3 45/45/3 
f 45/45/3 31/31/3 32/32/4 46/46/4 
f 46/46/4 32/32/4 33/33/5 47/47/5 
f 47/47/5 33/33/5 34/34/6 48/48/6 
f 48/48/6 34/34/6 35/35/7 49/49/7 
f 49/49/7 35/35/7 36/36/8 50/50/8 
f 50/50/8 36/36/8 37/37/9 51/51/9 
f 51/51/9 37/37/9 38/38/10 52/52/10 
f 52/52/10 38/38/10 39/39/11 53/53/11 
f 53/53/11 39/39/11 40/40/12 54/54/12 
f 54/54/12 40/40/12 41/41/13 55/55/13 
f 55/55/13 41/41/13 42/42/14 56/56/14 
f 57/57/1 43/43/1 44/44/2 58/58/2 
f 58/58/2 44/44/2 45/45/3 59/59/3 
f 59/59/3 45/45/3 46/46/4 60/60/4 
f 60/60/4 46/46/4 47/47/5 61/61/5 
f 61/61/5 47/47/5 48/48/6 62/62/6 
f 62/62/6 48/48/6 49/49/7 63/63/7 
f 63/63/7 49/49/7 50/50/8 64/64/8 
f 64/64/8 50/50/8 51/51/9 65/65/9 
f 65/65/9 51/51/9 52/52/10 66/66/10 
f 66/66/10 52/52/10 53/53/11 67/67/11 
f 67/67/11 53/53/11 54/54/12 68/68/12 
f 68/68/12 54/54/12 55/55/13 69/69/13 
f 69/69/13 55/55/13 56/56/14 70/70/14 
# 52 polygons

